<?xml version="1.0" standalone="no"?>
<!DOCTYPE svg PUBLIC "-//W3C//DTD SVG 20010904//EN"
 "http://www.w3.org/TR/2001/REC-SVG-20010904/DTD/svg10.dtd">
<svg version="1.0" xmlns="http://www.w3.org/2000/svg"
 width="512.000000pt" height="512.000000pt" viewBox="0 0 512.000000 512.000000"
 preserveAspectRatio="xMidYMid meet">
<metadata>
Created by potrace 1.11, written by Peter Selinger 2001-2013
</metadata>
<g transform="translate(0.000000,512.000000) scale(0.100000,-0.100000)"
fill="#000000" stroke="none">
<path d="M1970 5113 c-45 -16 -142 -69 -168 -93 -64 -58 -49 -178 53 -435 117
-293 203 -405 312 -405 33 0 42 4 51 25 33 72 18 191 -37 305 l-32 65 27 170
c31 201 27 230 -39 302 -60 65 -111 86 -167 66z"/>
<path d="M2968 4890 c-51 -15 -109 -54 -129 -87 -22 -35 -26 -77 -54 -478 -22
-315 -22 -352 4 -410 43 -97 96 -145 162 -145 61 0 126 87 181 241 21 62 22
77 23 394 l0 330 -24 35 c-33 48 -113 130 -126 129 -5 0 -22 -4 -37 -9z"/>
<path d="M1077 4463 c-35 -38 -57 -93 -57 -147 0 -51 32 -160 66 -228 23 -46
47 -105 99 -248 126 -349 199 -508 266 -583 52 -60 88 -74 148 -58 56 15 88
43 101 89 17 61 -34 177 -120 275 -22 26 -34 62 -63 187 -20 85 -52 225 -71
311 -20 85 -36 161 -36 168 0 23 -78 127 -134 178 -48 45 -123 83 -161 83 -6
0 -23 -12 -38 -27z"/>
<path d="M2205 3991 c-61 -15 -145 -78 -145 -110 0 -27 49 -98 92 -133 73 -59
136 -98 157 -98 31 0 89 57 102 101 17 54 -8 114 -78 190 -56 60 -67 64 -128
50z"/>
<path d="M441 3651 c-54 -54 -71 -160 -56 -354 l7 -97 70 -87 c93 -117 312
-363 387 -437 l60 -60 -67 -37 c-37 -21 -87 -56 -112 -78 l-45 -40 -3 70 -3
69 -149 0 -150 0 0 -565 0 -565 185 0 185 0 0 363 c0 403 2 413 69 470 82 69
198 33 250 -78 20 -43 21 -59 21 -400 l0 -355 180 0 180 0 0 288 0 287 24 -58
c26 -63 56 -112 116 -192 25 -33 45 -76 60 -130 56 -201 170 -462 258 -592 44
-64 114 -141 153 -166 23 -15 142 -53 279 -90 30 -8 103 -29 162 -46 l106 -31
149 15 c178 19 257 37 298 70 173 142 336 226 480 249 l90 14 64 68 c35 38
104 118 154 177 62 76 94 106 106 103 49 -15 96 -16 167 -7 83 12 143 38 227
97 l47 34 0 -55 0 -55 166 0 165 0 -3 418 c-3 407 -4 418 -26 473 -12 31 -36
75 -52 97 l-28 40 101 47 c153 72 227 155 227 256 0 39 -48 126 -88 159 -123
101 -354 140 -475 81 -102 -50 -226 -193 -287 -332 l-24 -54 -85 -17 c-82 -16
-231 -79 -231 -98 0 -7 19 -63 75 -218 3 -10 14 -8 44 8 22 11 43 20 46 20 13
0 -55 -88 -100 -128 -56 -52 -100 -72 -158 -72 -35 0 -110 21 -125 35 -1 1 -9
27 -17 59 -33 127 -141 275 -239 326 -35 19 -48 34 -65 76 l-22 51 35 79 c48
109 86 245 93 330 5 57 1 86 -16 143 -26 87 -59 126 -156 186 -94 59 -172 86
-260 92 -68 5 -73 4 -155 -41 -70 -38 -94 -46 -138 -46 -58 0 -103 18 -126 51
-13 20 -22 21 -93 17 -64 -4 -90 -10 -139 -37 -120 -64 -159 -123 -274 -415
-69 -174 -143 -308 -204 -367 -31 -30 -50 -39 -99 -48 -109 -19 -201 -73 -266
-156 -17 -22 -25 -26 -29 -16 -6 17 -94 115 -167 186 -53 52 -124 163 -199
313 -62 124 -160 364 -184 452 -19 68 -26 80 -79 127 -59 53 -218 143 -254
143 -10 0 -28 -9 -38 -19z m2675 -1041 c43 -11 84 -26 89 -33 6 -6 27 -21 48
-32 99 -52 210 -202 237 -321 6 -27 19 -62 27 -78 13 -23 15 -48 10 -130 -7
-112 -22 -177 -60 -259 -114 -249 -386 -373 -683 -311 -221 45 -384 206 -430
424 -18 84 -18 237 0 321 33 152 140 296 272 366 133 71 334 92 490 53z m1224
-357 c0 -18 -7 -22 -52 -25 -29 -2 -54 -3 -56 -2 -2 1 19 17 45 37 50 37 63
35 63 -10z"/>
<path d="M2866 2365 c-51 -18 -100 -67 -125 -126 -52 -119 -48 -322 7 -429 81
-155 266 -164 358 -18 71 112 73 361 5 472 -31 49 -84 93 -128 105 -49 14 -69
13 -117 -4z"/>
<path d="M1677 3099 c-43 -10 -113 -44 -122 -59 -17 -28 66 -100 116 -100 58
0 102 67 91 138 -5 35 -15 38 -85 21z"/>
<path d="M927 1039 c78 -113 291 -329 451 -456 26 -20 67 -55 92 -78 166 -147
205 -172 450 -281 214 -95 261 -107 268 -72 4 20 -3 24 -208 104 -170 66 -296
127 -383 186 -34 23 -132 110 -217 193 -205 200 -459 439 -472 444 -6 2 3 -16
19 -40z"/>
<path d="M1440 955 c-6 -8 -9 -19 -5 -24 3 -6 65 -50 138 -99 73 -49 153 -103
178 -121 50 -33 73 -38 85 -19 5 7 -8 25 -32 46 -41 36 -332 232 -344 232 -4
0 -13 -7 -20 -15z"/>
<path d="M1304 828 c-9 -14 155 -168 176 -165 34 5 16 36 -60 105 -80 71 -102
83 -116 60z"/>
<path d="M1466 821 c-8 -12 117 -127 219 -203 215 -161 445 -256 749 -312 179
-34 422 -54 439 -37 19 19 -6 28 -107 35 -226 17 -470 63 -625 118 -186 65
-317 141 -522 303 -74 57 -137 105 -141 105 -4 0 -9 -4 -12 -9z"/>
<path d="M1893 663 c-35 -13 -5 -38 110 -93 292 -140 526 -200 779 -200 l97 0
21 -72 c12 -40 23 -79 25 -86 3 -7 -6 -13 -23 -13 -277 -14 -267 -13 -267 -34
0 -19 7 -20 175 -20 l175 0 -2 42 c-1 23 -17 86 -35 140 l-33 98 -131 1 c-277
4 -502 58 -749 181 -109 55 -126 61 -142 56z"/>
<path d="M1527 644 c-4 -4 -7 -11 -7 -15 0 -15 223 -200 238 -197 35 7 18 31
-84 120 -102 89 -131 107 -147 92z"/>
<path d="M1812 394 c2 -11 51 -35 141 -70 150 -59 170 -63 165 -37 -2 11 -47
34 -137 70 -144 57 -174 63 -169 37z"/>
<path d="M3750 264 c-188 -77 -431 -132 -684 -155 -146 -14 -463 -6 -624 16
-129 17 -155 11 -150 -33 4 -32 40 -43 232 -69 165 -22 529 -24 661 -4 205 31
431 116 583 219 80 54 76 51 71 56 -2 2 -42 -11 -89 -30z"/>
<path d="M2265 231 c-9 -15 20 -26 167 -62 108 -26 140 -31 150 -21 21 21 -3
31 -150 62 -159 34 -159 34 -167 21z"/>
</g>
</svg>
