{
	"asset":{
		"version":"2.0",
		"generator":"Created using the official Cinema 4D glTF Exporter 1.000x290161"
	},
	"scenes":[{
		"nodes":[0]
	}],
	"nodes":[{
		"name":"Default",
		"mesh":0
	}],
	"meshes":[{
		"primitives":[{
			"attributes":{
				"POSITION":1,
				"NORMAL":2,
				"TEXCOORD_0":3
			},
			"indices":0,
			"material":0
		}]
	}],
	"accessors":[{
		"bufferView":0,
		"type":"SCALAR",
		"componentType":5123,
		"count":26826,
		"byteOffset":0,
		"min":[0],
		"max":[7556]
	},
	{
		"bufferView":1,
		"type":"VEC3",
		"componentType":5126,
		"count":7557,
		"byteOffset":0,
		"min":[-141.8210906982422,
		-374.3002624511719,
		-93.16490173339844],
		"max":[-5.713332653045654,
		439.7571105957031,
		228.4287872314453]
	},
	{
		"bufferView":1,
		"type":"VEC3",
		"componentType":5126,
		"count":7557,
		"byteOffset":12,
		"min":[-0.9980965852737427,
		-1.0,
		-0.9999833106994629],
		"max":[0.9998080730438232,
		0.9847655892372131,
		0.9968768954277039]
	},
	{
		"bufferView":1,
		"type":"VEC2",
		"componentType":5126,
		"count":7557,
		"byteOffset":24,
		"min":[0.05504550039768219,
		0.05451799929141998],
		"max":[0.8754379749298096,
		0.943498969078064]
	}],
	"bufferViews":[{
		"buffer":0,
		"byteOffset":0,
		"byteLength":53652,
		"target":34963
	},
	{
		"buffer":0,
		"byteOffset":53652,
		"byteLength":241824,
		"target":34962,
		"byteStride":32
	}],
	"buffers":[{
		"uri":"data:application/octet-stream;base64,",
		"byteLength":295476
	}],
	"images":[{
		"uri":"data:image/jpeg;base64,"
	}],
	"samplers":[{
		"magFilter":9729,
		"minFilter":9729,
		"wrapS":10497,
		"wrapT":10497
	}],
	"textures":[{
		"sampler":0,
		"source":0
	}],
	"materials":[{
		"pbrMetallicRoughness":{
			"baseColorTexture":{
				"index":0
			},
			"baseColorFactor":[1.0,
			1.0,
			1.0,
			1.0],
			"metallicFactor":1.0,
			"roughnessFactor":0.0
		},
		"emissiveFactor":[0.0,
		0.0,
		0.0],
		"alphaMode":"OPAQUE",
		"doubleSided":false,
		"name":"material_0"
	}]
}