{
	"asset":{
		"version":"2.0",
		"generator":"Created using the official Cinema 4D glTF Exporter 1.000x284978"
	},
	"meshes":[{
		"name":"Default",
		"primitives":[{
			"attributes":{
				"TEXCOORD_0":3,
				"POSITION":1,
				"NORMAL":2
			},
			"indices":0,
			"material":0
		}]
	},
	{
		"name":"Default",
		"primitives":[{
			"attributes":{
				"TEXCOORD_0":7,
				"POSITION":5,
				"NORMAL":6
			},
			"indices":4,
			"material":0
		}]
	}],
	"scenes":[{
		"nodes":[0,
		1]
	}],
	"samplers":[{
		"magFilter":9729,
		"minFilter":9729,
		"wrapS":10497,
		"wrapT":10497
	}],
	"nodes":[{
		"name":"Default",
		"translation":[0.0,
		15.010021209716797,
		0.0],
		"rotation":[0.0,
		0.0,
		0.0,
		-1.0],
		"scale":[1.0,
		1.0,
		1.0],
		"mesh":0
	},
	{
		"children":[2],
		"name":"Default",
		"translation":[0.0,
		15.010021209716797,
		0.0],
		"rotation":[0.0,
		0.0,
		0.0,
		-1.0],
		"scale":[1.0,
		1.0,
		1.0]
	},
	{
		"name":"Default",
		"mesh":1
	}],
	"textures":[{
		"sampler":0,
		"source":0
	}],
	"accessors":[{
		"bufferView":0,
		"type":"SCALAR",
		"componentType":5123,
		"count":37416,
		"min":[0],
		"byteOffset":0,
		"max":[7799]
	},
	{
		"bufferView":1,
		"type":"VEC3",
		"componentType":5126,
		"count":7800,
		"min":[16.144561767578126,
		-16.86677360534668,
		-6.317392826080322],
		"byteOffset":0,
		"max":[29.450016021728517,
		-1.2133510112762452,
		7.85271692276001]
	},
	{
		"bufferView":1,
		"type":"VEC3",
		"componentType":5126,
		"count":7800,
		"min":[-0.9999864101409912,
		-1.0,
		-0.9999734163284302],
		"byteOffset":12,
		"max":[0.9999902844429016,
		0.9999381899833679,
		0.9999484419822693]
	},
	{
		"bufferView":1,
		"type":"VEC2",
		"componentType":5126,
		"count":7800,
		"min":[0.08094099909067154,
		0.08094099164009094],
		"byteOffset":24,
		"max":[0.8836150169372559,
		0.9253299236297607]
	},
	{
		"bufferView":2,
		"type":"SCALAR",
		"componentType":5123,
		"count":37416,
		"min":[0],
		"byteOffset":0,
		"max":[7799]
	},
	{
		"bufferView":3,
		"type":"VEC3",
		"componentType":5126,
		"count":7800,
		"min":[16.144561767578126,
		-16.86677360534668,
		-6.317392826080322],
		"byteOffset":0,
		"max":[29.450016021728517,
		-1.2133510112762452,
		7.85271692276001]
	},
	{
		"bufferView":3,
		"type":"VEC3",
		"componentType":5126,
		"count":7800,
		"min":[-0.9999688267707825,
		-1.0,
		-0.9999688267707825],
		"byteOffset":12,
		"max":[0.9999688267707825,
		0.9999375343322754,
		0.9999375343322754]
	},
	{
		"bufferView":3,
		"type":"VEC2",
		"componentType":5126,
		"count":7800,
		"min":[0.08094099909067154,
		0.08094096183776856],
		"byteOffset":24,
		"max":[0.8836150169372559,
		0.9253299236297607]
	}],
	"bufferViews":[{
		"buffer":0,
		"byteOffset":0,
		"byteLength":74832,
		"target":34963
	},
	{
		"buffer":0,
		"byteOffset":74832,
		"byteStride":32,
		"byteLength":249600,
		"target":34962
	},
	{
		"buffer":1,
		"byteOffset":0,
		"byteLength":74832,
		"target":34963
	},
	{
		"buffer":1,
		"byteOffset":74832,
		"byteStride":32,
		"byteLength":249600,
		"target":34962
	}],
	"buffers":[{
		"uri":"data:application/octet-stream;base64,",
		"byteLength":324432
	},
	{
		"uri":"data:application/octet-stream;base64,",
		"byteLength":324432
	}],
	"images":[{
		"uri":"data:image/jpeg;base64,"
	}],
	"materials":[{
		"pbrMetallicRoughness":{
			"baseColorTexture":{
				"index":0
			},
			"baseColorFactor":[1.0,
			1.0,
			1.0,
			1.0],
			"metallicFactor":1.0,
			"roughnessFactor":1.0
		},
		"emissiveFactor":[0.0,
		0.0,
		0.0],
		"alphaMode":"OPAQUE",
		"doubleSided":false,
		"name":"material_0"
	}]
}