<svg id="Layer_1" data-name="Layer 1" xmlns="http://www.w3.org/2000/svg" viewBox="0 0 680.2 250.21"><title>moa-instuction-icons</title><path d="M188.77,121.83V88.46l28.9,16.7Z"/><path d="M433.77,121.83V88.46l28.9,16.7Z"/><path d="M52.35,170.37c0-11.15.09-21.89,0-32.63-.11-9.33-.48-18.65-.66-28a26.27,26.27,0,0,1,.45-6c1.59-7.39,7.25-12.71,13-12.47S76.43,98,76.76,105.69c.41,9.48.22,19,.27,28.47,0,2.45,0,4.9,0,7.75,9.21-2.25,15.57.87,19.89,8.74,8.63-3.63,15.38-1.66,19.8,6.78a8.32,8.32,0,0,0,1.51,0c12.79-2.67,19.69,3,19.17,16-.68,16.8-1.76,33.55-6.46,49.87-3,10.56-9.7,18.16-18.88,23.51a25.93,25.93,0,0,1-11.3,3.22c-8.63.45-17,0-26,0-8-.1-15.46-2.85-20.44-9.32a126.17,126.17,0,0,1-11.24-18.17q-10-18.95-19.36-38.27a47.76,47.76,0,0,1-4-13.17c-.8-5.17,1.54-9.44,6.18-12.13s9.4-1.79,13.57,1.22C43.87,163.34,48,166.89,52.35,170.37Z"/><path d="M44.76,113.46A24.5,24.5,0,1,1,84,111.89c.06,3.43.08,6.85.08,10.22a31.49,31.49,0,1,0-39,1.2c0-.52,0-1,0-1.56C44.89,119,44.83,116.22,44.76,113.46Z"/><path d="M128.07,16.63C128.05,6.23,121.48,0,111,0Q65.22,0,19.48,0C5.84,0,0,5.85,0,19.45V86.93q0,49,0,98c0,9.72,4.89,16.39,13.49,17.63,4.47.65,9.11.12,14.5.12-3-5.38-5.75-10.1-8.35-14.88-4.15-7.61-6.69-15.43-6.62-24.46.33-44.65.15-89.3.14-134V23.17H115v7.11q0,56.23.06,112.46a12.27,12.27,0,0,0,1.72,5.9c2.81,4.76,7.16,2.08,11.06,2.3.12-1.06.26-1.7.26-2.35Q128.13,82.6,128.07,16.63ZM81.77,14h-35a1.5,1.5,0,0,1,0-3h35a1.5,1.5,0,0,1,0,3Z"/><path d="M294.61,55l2.19-2.61a7.7,7.7,0,0,0,5,2c1.51,0,2.42-.6,2.42-1.59v0c0-.94-.58-1.42-3.38-2.14-3.39-.87-5.57-1.8-5.57-5.14v0c0-3,2.44-5.06,5.88-5.06a9.72,9.72,0,0,1,6.24,2.14l-1.92,2.78a7.91,7.91,0,0,0-4.37-1.66c-1.42,0-2.16.65-2.16,1.47v.05c0,1.1.72,1.46,3.62,2.2,3.41.89,5.33,2.12,5.33,5v0c0,3.34-2.54,5.21-6.17,5.21A10.71,10.71,0,0,1,294.61,55Z"/><path d="M310.17,49.12v0a8.54,8.54,0,0,1,8.76-8.69A8.7,8.7,0,0,1,325.56,43l-2.36,2.72a6.16,6.16,0,0,0-4.29-1.9A5,5,0,0,0,314,49v0a5,5,0,0,0,4.87,5.28,6.05,6.05,0,0,0,4.41-2l2.36,2.38a8.59,8.59,0,0,1-6.89,3A8.48,8.48,0,0,1,310.17,49.12Z"/><path d="M334.3,40.55h3.41l7.2,16.92H341l-1.53-3.77H332.4l-1.53,3.77H327.1Zm3.89,9.89L336,45l-2.23,5.45Z"/><path d="M347.37,40.67h3.41L358.65,51V40.67h3.65v16.8h-3.14L351,46.79V57.47h-3.65Z"/><path d="M353.56,126.36h8V149.9H338.13v-7.54h15.43Z"/><path d="M298.07,101.87V86.43h15.41v15.44Z"/><path d="M346.06,101.94V86.54h15.49v15.4Z"/><path d="M353.49,118.24h-7.57V134h-7.69V110.58h15.26Z"/><path d="M313.48,150H298.13V134.44h15.35Z"/><path d="M329.59,110h-7.4V86.51h7.4Z"/><path d="M321.52,126H298.09v-7.43h23.43Z"/><path d="M322.13,134.27h7.36v15.59h-7.36Z"/><path d="M394,19.34c0-.76,0-1.48,0-2.19v-.63C393.91,6.12,387,0,376.52,0H374.2C360.23,0,299,0,285,0h-2.31c-10.52,0-17,6.3-17.05,16.7v.63c0,.71,0,1.44,0,2.19,0,17.36-.07,135.88,0,165.45,0,9.72,5,17.54,13.7,17.54h101.1c13.8,0,13.48-10.16,13.47-15.64v-54.6C394,131.05,394,36.66,394,19.34Zm-82.14-8h35a1.5,1.5,0,0,1,0,3h-35a1.5,1.5,0,0,1,0-3ZM380.28,189h-101s-.44-130.3-.49-159.59c0-2,0-3.93,0-6.19h.5V23h101v.07h.25c0,2.26,0,4.22,0,6.18,0,29.26,0,58.52.1,87.77C380.52,117,380.28,189,380.28,189Z"/><path d="M640.29,133.13c4,3.43,7.1,5.76,9.82,8.44,8.06,7.94,16.08,15.94,23.92,24.09,5.36,5.58,7,12.19,5.8,20-3.05,20.17-5.62,39.42-8.41,60.11a4.1,4.1,0,0,1-4.06,3.55H632c-3.47,0-6.9-1.78-8.2-5-1.09-2.7-3.56-3.83-6-6.06-6-5.57-8.43-13.22-10.63-20.93a13.7,13.7,0,0,0-4.15-6.53c-7-6.1-14.28-11.82-21.36-17.8-6.47-5.47-7.93-11.66-4.33-17.32,3.44-5.42,10.41-7.27,17.56-4,3.78,1.72,7,4.67,10.61,6.77,7.67,4.46,15.11,9.63,23.3,12.81,8.42,3.26,14.55-1.67,15.25-10.75.19-2.47.23-5.35-.83-7.45-4.2-8.31-2.68-17.12-2.91-25.78C640.2,143.1,640.29,138.9,640.29,133.13Z"/><path d="M597.08,124.7c-5.2-10.08-15.22-9.7-19.44-20.49-2.57-6.55-1.42-13.19,0-17.86H553.47c1.42,4.67,2.56,11.31,0,17.86C549.25,115,539.22,114.62,534,124.7c-4.92,9.55-3.88,25.31,6.3,33.63,5,4.11,10.92,4.7,15.75,4.78s8.63.24,9.47,0c.85.24,4.64.08,9.47,0s10.72-.67,15.75-4.78C601,150,602,134.25,597.08,124.7Z"/><path d="M555.67,40.54h3.41l7.2,16.93h-3.86l-1.54-3.77h-7.1l-1.54,3.77h-3.77Zm3.89,9.89L557.33,45l-2.23,5.45Z"/><path d="M568.75,40.66h7.68a6.66,6.66,0,0,1,4.89,1.71,5.24,5.24,0,0,1,1.44,3.84v0a5.2,5.2,0,0,1-3.6,5.2l4.11,6H579l-3.6-5.38h-2.91v5.38h-3.69Zm7.44,8.16c1.8,0,2.83-1,2.83-2.37V46.4c0-1.58-1.11-2.4-2.91-2.4h-3.67v4.82Z"/><path d="M629.91,19.33c0-.75,0-1.48,0-2.19v-.63C629.87,6.11,623,0,612.47,0h-2.31c-14,0-90.87,0-91.47,0-10.53,0-17,6.31-17.05,16.71v.63c0,.71,0,1.43,0,2.19,0,17.36-.07,135.87,0,165.45,0,9.71,5,17.54,13.7,17.54h66.77c-1.66-1.37-3.33-2.75-5-4.14a25.65,25.65,0,0,1-7.2-9.38h-54.7s-.49-163.51-.49-165.77a1.39,1.39,0,0,0,.49-.23h101v.07h.26c0,2.26,0,64.7.1,94-.08,0-.24,39.23-.31,59.76a106.76,106.76,0,0,0,13.63,7.38v-51.9C629.9,131,629.93,36.66,629.91,19.33Zm-46.14-5h-35a1.5,1.5,0,0,1,0-3h35a1.5,1.5,0,0,1,0,3Z"/></svg>